<svg width="2454" height="530" viewBox="0 0 2454 530" fill="none" xmlns="http://www.w3.org/2000/svg">
<path fill-rule="evenodd" clip-rule="evenodd" d="M16.5446 224.467C-11.4557 149.5 43.0443 30.5001 56.0443 32.5001C66.4403 34.0995 114.567 44.3321 151.585 52.203C156.387 53.2238 161.001 54.205 165.323 55.1224C165.979 55.2618 166.631 55.3036 167.271 55.2594C167.912 55.3037 168.565 55.262 169.222 55.1225C173.52 54.2099 178.109 53.2343 182.883 52.2192L182.933 52.2085L182.959 52.203L182.96 52.2027C219.979 44.332 268.104 34.0995 278.5 32.5002C291.5 30.5002 346 149.5 318 224.468C349.772 165.291 330.021 88.4491 306.852 41.0493C297.461 21.8382 275.62 13.7764 254.692 18.1695L167.272 36.5211L79.852 18.1694C58.9248 13.7763 37.0833 21.8382 27.6928 41.0492C4.52356 88.449 -15.2281 165.291 16.5446 224.467ZM174.13 511.223L195.172 485.116C196.031 484.049 196.5 482.72 196.5 481.351V322.475C196.5 319.36 198.901 316.86 201.986 316.428C210.877 315.183 210.876 311.443 210.864 282.949C210.862 277.022 210.859 270.024 210.935 261.754C210.965 258.528 213.579 255.917 216.801 255.767C248.254 254.3 253.275 246.921 254.271 213.031C254.426 207.752 261.047 204.821 265.534 207.606C282.629 218.219 303.419 219.655 313.5 200.467C325.645 177.353 306.166 159.387 294.242 152.864C293.747 152.593 293.256 152.417 292.703 152.311C259.327 145.916 162.75 148.239 25.5744 203.34C19.5384 205.764 21.2877 214.467 27.7925 214.467H38.5882C39.1926 214.467 39.7935 214.376 40.3706 214.197L76.7176 202.889C80.5797 201.687 84.4264 204.57 84.1217 208.604C84.048 209.579 83.9687 210.564 83.889 211.554C82.2874 231.451 80.4906 253.773 119.468 255.816C122.777 255.989 125.501 258.659 125.475 261.973C125.464 263.518 125.449 264.965 125.435 266.32L125.435 266.321L125.435 266.327C125.24 285.619 125.234 286.242 135.995 286.05C139.308 285.99 142 288.654 142 291.967V354.692C142 356.733 140.908 358.582 139.433 359.993C135.565 363.689 132.8 369.882 142 375.467C143.68 376.842 145.221 381.074 139.305 387.623C138.202 388.844 137.5 390.399 137.5 392.043V400.533C137.5 402.384 138.373 404.106 139.723 405.373C147.977 413.115 156.666 429.001 139.663 444.599C138.334 445.819 137.5 447.514 137.5 449.318V475.821C137.5 477.209 137.981 478.554 138.862 479.627L164.82 511.264C167.234 514.206 171.742 514.186 174.13 511.223ZM51.6001 113.918C44.0764 114.213 33.8521 114.916 30.9369 116.241C29.3513 116.962 34.1219 121.765 35.8546 121.588C42.973 120.863 52.3684 121.487 58.7413 122.238C59.6614 122.347 60.6035 122.176 61.4296 121.757C134.829 84.5056 192.733 100.029 215.816 115.397C216.889 116.112 215.51 118.329 214.779 119.505L214.701 119.63C214.3 120.276 215.098 120.397 215.857 120.446C272.576 124.118 286.006 132.592 285.598 136.4C285.074 139.021 283.153 140.574 281.946 141.55C280.671 142.581 280.192 142.968 282.996 143.289C283.632 143.362 284.238 143.394 284.775 143.394C288.34 142.983 294.155 139.774 288.889 130.229C284.047 121.453 253.556 116.178 235.353 114.213C232.418 113.896 229.596 112.858 227.12 111.25C163.472 69.9255 92.4048 92.4753 60.5462 111.24C57.8156 112.849 54.7668 113.794 51.6001 113.918Z" fill="black"/>
<path d="M399.644 418H393.794L432.944 103H447.794L542.294 394.15L636.344 103H651.194L690.344 418H652.994L621.944 166L540.494 418H512.144L429.794 169.15L399.644 418ZM726.32 106.6C761.12 104.2 791.87 103 818.57 103C892.67 103 929.72 127.75 929.72 177.25C929.72 198.25 924.62 217 914.42 233.5C904.22 250 886.67 260.95 861.77 266.35L951.77 418H909.92L821.72 269.05H763.67V418H726.32V106.6ZM818.57 107.5C801.17 107.5 782.87 108.55 763.67 110.65V264.55H830.27C872.57 262.75 893.72 233.95 893.72 178.15C893.72 155.35 887.42 137.95 874.82 125.95C862.22 113.65 843.47 107.5 818.57 107.5ZM1174.26 418H1136.91V107.5H1059.06V103H1252.56V107.5H1174.26V418ZM1487.11 103H1492.96V283C1492.96 330.1 1483.66 364.75 1465.06 386.95C1446.46 408.85 1422.16 419.8 1392.16 419.8C1373.26 419.8 1357.21 418.15 1344.01 414.85C1330.81 411.25 1318.36 404.8 1306.66 395.5C1282.66 376.9 1270.66 339.4 1270.66 283V103H1308.01V282.55C1308.01 337.15 1316.26 373.6 1332.76 391.9C1341.16 400.9 1349.86 407.05 1358.86 410.35C1368.16 413.65 1379.26 415.3 1392.16 415.3C1420.96 415.3 1443.91 404.8 1461.01 383.8C1478.41 362.5 1487.11 328.75 1487.11 282.55V103ZM1522.27 106.6C1557.07 104.2 1587.82 103 1614.52 103C1688.62 103 1725.67 127.75 1725.67 177.25C1725.67 198.25 1720.57 217 1710.37 233.5C1700.17 250 1682.62 260.95 1657.72 266.35L1747.72 418H1705.87L1617.67 269.05H1559.62V418H1522.27V106.6ZM1614.52 107.5C1597.12 107.5 1578.82 108.55 1559.62 110.65V264.55H1626.22C1668.52 262.75 1689.67 233.95 1689.67 178.15C1689.67 155.35 1683.37 137.95 1670.77 125.95C1658.17 113.65 1639.42 107.5 1614.52 107.5ZM1769.14 418H1763.29V103H1778.59L1965.79 394.15V103H1971.64V418H1938.79L1769.14 157V418ZM2184.39 103V107.5H2042.64V242.5H2174.04V247H2042.64V413.5H2194.29V418H2005.29V103H2184.39ZM2214.71 106.6C2249.51 104.2 2280.26 103 2306.96 103C2381.06 103 2418.11 127.75 2418.11 177.25C2418.11 198.25 2413.01 217 2402.81 233.5C2392.61 250 2375.06 260.95 2350.16 266.35L2440.16 418H2398.31L2310.11 269.05H2252.06V418H2214.71V106.6ZM2306.96 107.5C2289.56 107.5 2271.26 108.55 2252.06 110.65V264.55H2318.66C2360.96 262.75 2382.11 233.95 2382.11 178.15C2382.11 155.35 2375.81 137.95 2363.21 125.95C2350.61 113.65 2331.86 107.5 2306.96 107.5Z" fill="black"/>
</svg>
